<svg width="103" height="32" viewBox="0 0 103 32" fill="none" xmlns="http://www.w3.org/2000/svg">
<rect width="103" height="32" rx="6" fill="#02108D"/>
<rect x="0.5" y="0.5" width="102" height="31" rx="5.5" stroke="white" stroke-opacity="0.14"/>
<path d="M33.0387 21V11.5455H34.4652V19.772H38.7493V21H33.0387ZM40.2658 21V13.9091H41.6461V21H40.2658ZM40.9629 12.815C40.7228 12.815 40.5166 12.735 40.3443 12.5749C40.175 12.4118 40.0904 12.2179 40.0904 11.9933C40.0904 11.7655 40.175 11.5716 40.3443 11.4116C40.5166 11.2485 40.7228 11.1669 40.9629 11.1669C41.2029 11.1669 41.4076 11.2485 41.5769 11.4116C41.7492 11.5716 41.8354 11.7655 41.8354 11.9933C41.8354 12.2179 41.7492 12.4118 41.5769 12.5749C41.4076 12.735 41.2029 12.815 40.9629 12.815ZM49.5692 13.9091L46.9978 21H45.5205L42.9445 13.9091H44.4264L46.2222 19.3658H46.2961L48.0873 13.9091H49.5692ZM53.6813 21.1431C52.9827 21.1431 52.381 20.9938 51.8762 20.6953C51.3746 20.3937 50.9868 19.9705 50.7129 19.4258C50.4421 18.878 50.3066 18.2363 50.3066 17.5007C50.3066 16.7744 50.4421 16.1342 50.7129 15.5803C50.9868 15.0263 51.3684 14.5939 51.8578 14.283C52.3502 13.9722 52.9257 13.8168 53.5843 13.8168C53.9844 13.8168 54.3722 13.8829 54.7477 14.0153C55.1232 14.1476 55.4602 14.3554 55.7587 14.6385C56.0572 14.9216 56.2927 15.2894 56.465 15.7418C56.6374 16.1912 56.7235 16.7375 56.7235 17.3807V17.87H51.0868V16.8359H55.3709C55.3709 16.4728 55.2971 16.1512 55.1493 15.8711C55.0016 15.5879 54.7939 15.3648 54.5261 15.2017C54.2614 15.0386 53.9506 14.957 53.5936 14.957C53.2058 14.957 52.8672 15.0524 52.5779 15.2433C52.2917 15.431 52.0701 15.6772 51.9132 15.9819C51.7593 16.2835 51.6824 16.6113 51.6824 16.9652V17.7731C51.6824 18.247 51.7654 18.6502 51.9316 18.9826C52.1009 19.315 52.3364 19.5689 52.638 19.7443C52.9396 19.9167 53.292 20.0028 53.6951 20.0028C53.9567 20.0028 54.1953 19.9659 54.4107 19.892C54.6261 19.8151 54.8123 19.7012 54.9693 19.5504C55.1262 19.3996 55.2463 19.2134 55.3294 18.9918L56.6358 19.2273C56.5312 19.612 56.3435 19.949 56.0726 20.2383C55.8049 20.5245 55.4679 20.7476 55.0616 20.9077C54.6584 21.0646 54.1983 21.1431 53.6813 21.1431ZM64.867 21H61.8063V11.5455H64.964C65.8903 11.5455 66.6859 11.7347 67.3507 12.1133C68.0154 12.4888 68.5248 13.0289 68.8787 13.7337C69.2357 14.4354 69.4142 15.2771 69.4142 16.2589C69.4142 17.2437 69.2342 18.0901 68.8741 18.7979C68.5171 19.5058 68.0001 20.0505 67.323 20.4322C66.6459 20.8107 65.8272 21 64.867 21ZM63.2328 19.7536H64.7885C65.5087 19.7536 66.1073 19.6181 66.5843 19.3473C67.0614 19.0734 67.4184 18.6779 67.6554 18.1609C67.8923 17.6407 68.0108 17.0067 68.0108 16.2589C68.0108 15.5172 67.8923 14.8878 67.6554 14.3707C67.4215 13.8537 67.0721 13.4613 66.6074 13.1935C66.1427 12.9258 65.5656 12.7919 64.8762 12.7919H63.2328V19.7536ZM74.1334 21.1431C73.4348 21.1431 72.8331 20.9938 72.3284 20.6953C71.8267 20.3937 71.439 19.9705 71.165 19.4258C70.8942 18.878 70.7588 18.2363 70.7588 17.5007C70.7588 16.7744 70.8942 16.1342 71.165 15.5803C71.439 15.0263 71.8206 14.5939 72.3099 14.283C72.8023 13.9722 73.3779 13.8168 74.0365 13.8168C74.4366 13.8168 74.8244 13.8829 75.1998 14.0153C75.5753 14.1476 75.9123 14.3554 76.2108 14.6385C76.5094 14.9216 76.7448 15.2894 76.9172 15.7418C77.0895 16.1912 77.1757 16.7375 77.1757 17.3807V17.87H71.539V16.8359H75.8231C75.8231 16.4728 75.7492 16.1512 75.6015 15.8711C75.4537 15.5879 75.246 15.3648 74.9782 15.2017C74.7136 15.0386 74.4027 14.957 74.0457 14.957C73.6579 14.957 73.3194 15.0524 73.0301 15.2433C72.7439 15.431 72.5223 15.6772 72.3653 15.9819C72.2114 16.2835 72.1345 16.6113 72.1345 16.9652V17.7731C72.1345 18.247 72.2176 18.6502 72.3838 18.9826C72.5531 19.315 72.7885 19.5689 73.0901 19.7443C73.3917 19.9167 73.7441 20.0028 74.1473 20.0028C74.4089 20.0028 74.6474 19.9659 74.8628 19.892C75.0783 19.8151 75.2645 19.7012 75.4214 19.5504C75.5784 19.3996 75.6984 19.2134 75.7815 18.9918L77.088 19.2273C76.9833 19.612 76.7956 19.949 76.5248 20.2383C76.257 20.5245 75.92 20.7476 75.5138 20.9077C75.1106 21.0646 74.6505 21.1431 74.1334 21.1431ZM78.7072 21V13.9091H80.0321V15.0632H80.1199C80.2676 14.6723 80.5092 14.3677 80.8446 14.1491C81.1801 13.9276 81.5817 13.8168 82.0495 13.8168C82.5235 13.8168 82.9205 13.9276 83.2406 14.1491C83.5637 14.3707 83.8023 14.6754 83.9561 15.0632H84.03C84.1993 14.6847 84.4686 14.383 84.8379 14.1584C85.2072 13.9306 85.6473 13.8168 86.1582 13.8168C86.8014 13.8168 87.3262 14.0183 87.7324 14.4215C88.1417 14.8247 88.3464 15.4325 88.3464 16.245V21H86.9661V16.3743C86.9661 15.8942 86.8353 15.5464 86.5737 15.331C86.3121 15.1155 85.9997 15.0078 85.6365 15.0078C85.1872 15.0078 84.8379 15.1463 84.5886 15.4233C84.3393 15.6972 84.2147 16.0496 84.2147 16.4805V21H82.839V16.2866C82.839 15.9019 82.7189 15.5926 82.4789 15.3587C82.2388 15.1248 81.9264 15.0078 81.5417 15.0078C81.2801 15.0078 81.0385 15.0771 80.8169 15.2156C80.5984 15.351 80.4215 15.5402 80.286 15.7834C80.1537 16.0265 80.0875 16.3081 80.0875 16.6282V21H78.7072ZM93.1833 21.1431C92.5186 21.1431 91.9384 20.9908 91.4429 20.6861C90.9474 20.3814 90.5627 19.9551 90.2888 19.4073C90.0149 18.8595 89.8779 18.2193 89.8779 17.4869C89.8779 16.7513 90.0149 16.1081 90.2888 15.5572C90.5627 15.0063 90.9474 14.5785 91.4429 14.2738C91.9384 13.9691 92.5186 13.8168 93.1833 13.8168C93.8481 13.8168 94.4282 13.9691 94.9237 14.2738C95.4192 14.5785 95.8039 15.0063 96.0779 15.5572C96.3518 16.1081 96.4887 16.7513 96.4887 17.4869C96.4887 18.2193 96.3518 18.8595 96.0779 19.4073C95.8039 19.9551 95.4192 20.3814 94.9237 20.6861C94.4282 20.9908 93.8481 21.1431 93.1833 21.1431ZM93.1879 19.9844C93.6188 19.9844 93.9758 19.8705 94.259 19.6428C94.5421 19.415 94.7514 19.1119 94.8868 18.7333C95.0253 18.3548 95.0945 17.9377 95.0945 17.4822C95.0945 17.0298 95.0253 16.6143 94.8868 16.2358C94.7514 15.8542 94.5421 15.5479 94.259 15.3171C93.9758 15.0863 93.6188 14.9709 93.1879 14.9709C92.754 14.9709 92.3939 15.0863 92.1077 15.3171C91.8245 15.5479 91.6137 15.8542 91.4752 16.2358C91.3398 16.6143 91.2721 17.0298 91.2721 17.4822C91.2721 17.9377 91.3398 18.3548 91.4752 18.7333C91.6137 19.1119 91.8245 19.415 92.1077 19.6428C92.3939 19.8705 92.754 19.9844 93.1879 19.9844Z" fill="#F5F5F5"/>
<path d="M20 14.268C21.3333 15.0378 21.3333 16.9623 20 17.7321L12.5 22.0622C11.1667 22.832 9.5 21.8697 9.5 20.3301L9.5 11.6699C9.5 10.1303 11.1667 9.16802 12.5 9.93782L20 14.268Z" fill="#F5F5F5"/>
<line x1="26.5" y1="1" x2="26.5" y2="31" stroke="white" stroke-opacity="0.14"/>
</svg>
